<?xml version="1.0" encoding="UTF-8" standalone="no"?>
<!-- Generator: Adobe Illustrator 19.0.0, SVG Export Plug-In . SVG Version: 6.00 Build 0)  -->

<svg
   xmlns:dc="http://purl.org/dc/elements/1.1/"
   xmlns:cc="http://creativecommons.org/ns#"
   xmlns:rdf="http://www.w3.org/1999/02/22-rdf-syntax-ns#"
   xmlns:svg="http://www.w3.org/2000/svg"
   xmlns="http://www.w3.org/2000/svg"
   xmlns:sodipodi="http://sodipodi.sourceforge.net/DTD/sodipodi-0.dtd"
   xmlns:inkscape="http://www.inkscape.org/namespaces/inkscape"
   version="1.1"
   id="Layer_1"
   x="0px"
   y="0px"
   viewBox="0 0 512 512"
   style="enable-background:new 0 0 512 512;"
   xml:space="preserve"
   sodipodi:docname="logo.svg"
   inkscape:version="0.92.3 (2405546, 2018-03-11)"><metadata
   id="metadata346"><rdf:RDF><cc:Work
       rdf:about=""><dc:format>image/svg+xml</dc:format><dc:type
         rdf:resource="http://purl.org/dc/dcmitype/StillImage" /><dc:title /></cc:Work></rdf:RDF></metadata><defs
   id="defs344" /><sodipodi:namedview
   pagecolor="#ffffff"
   bordercolor="#F24150"
   borderopacity="1"
   objecttolerance="10"
   gridtolerance="10"
   guidetolerance="10"
   inkscape:pageopacity="0"
   inkscape:pageshadow="2"
   inkscape:window-width="1920"
   inkscape:window-height="1043"
   id="namedview342"
   showgrid="false"
   inkscape:zoom="0.4609375"
   inkscape:cx="256"
   inkscape:cy="256"
   inkscape:window-x="0"
   inkscape:window-y="0"
   inkscape:window-maximized="1"
   inkscape:current-layer="Layer_1" />
<g
   id="g309"
   style="fill:#f24150;fill-opacity:1">
	<g
   id="g307"
   style="fill:#f24150;fill-opacity:1">
		<path
   d="M 256,0 C 153.755,0 70.573,83.182 70.573,185.426 c 0,126.888 165.939,313.167 173.004,321.035 6.636,7.391 18.222,7.378 24.846,0 7.065,-7.868 173.004,-194.147 173.004,-321.035 C 441.425,83.182 358.244,0 256,0 Z m 0,278.719 c -170.666667,155.52067 -85.33333,77.76033 0,0 z"
   id="path305"
   inkscape:connector-curvature="0"
   sodipodi:nodetypes="sscccscc"
   style="fill:#f24150;fill-opacity:1" />
	</g>
</g>
<g
   id="g311">
</g>
<g
   id="g313">
</g>
<g
   id="g315">
</g>
<g
   id="g317">
</g>
<g
   id="g319">
</g>
<g
   id="g321">
</g>
<g
   id="g323">
</g>
<g
   id="g325">
</g>
<g
   id="g327">
</g>
<g
   id="g329">
</g>
<g
   id="g331">
</g>
<g
   id="g333">
</g>
<g
   id="g335">
</g>
<g
   id="g337">
</g>
<g
   id="g339">
</g>
<g
   transform="translate(152.62762,222.69592)"
   id="g4132"
   style="fill:#ffffff"><path
     inkscape:connector-curvature="0"
     d="m 183.4571,-34.542205 c -2.72886,-2.728349 -6.04024,-4.0915 -9.93927,-4.0915 h -4.67403 v -28.062067 c 0,-17.927249 -6.42877,-33.320158 -19.2904,-46.181268 -12.86061,-12.86164 -28.25197,-19.29245 -46.18178,-19.29245 -17.929302,0 -33.323742,6.43081 -46.183326,19.29193 -12.861631,12.86164 -19.290399,28.254027 -19.290399,46.181788 v 28.062067 h -4.676073 c -3.89596,0 -7.209394,1.363151 -9.937742,4.0915 -2.728349,2.726303 -4.092012,6.039733 -4.092012,9.939273 v 84.18058 c 0,3.89596 1.364174,7.21041 4.092012,9.93927 2.728348,2.72579 6.041782,4.09048 9.937742,4.09048 H 173.52141 c 3.89903,0 7.20991,-1.36315 9.93928,-4.09048 2.72579,-2.72886 4.09201,-6.04331 4.09201,-9.93927 v -84.18211 c 0.002,-3.89647 -1.36622,-7.20939 -4.0956,-9.937743 z m -42.67229,-4.0915 H 65.958426 v -28.062067 c 0,-10.327287 3.65435,-19.145536 10.961513,-26.451676 7.308189,-7.307162 16.124899,-10.959972 26.453211,-10.959972 10.32934,0 19.144,3.6523 26.4527,10.959972 7.30512,7.305628 10.95896,16.124389 10.95896,26.451676 z"
     id="path4130"
     style="fill:#ffffff;stroke-width:0.51188534" /></g></svg>